<svg xmlns="http://www.w3.org/2000/svg" width="1600" height="980" viewBox="0 0 1600 980" role="img" aria-label="Maa inspired live performance stage artwork">
  <defs>
    <linearGradient id="sky" x1="0" x2="1" y1="0" y2="1">
      <stop offset="0" stop-color="#12100f"/>
      <stop offset=".55" stop-color="#4b1714"/>
      <stop offset="1" stop-color="#b6161d"/>
    </linearGradient>
    <radialGradient id="light" cx=".67" cy=".38" r=".55">
      <stop offset="0" stop-color="#f0b035" stop-opacity=".72"/>
      <stop offset=".42" stop-color="#e15b23" stop-opacity=".36"/>
      <stop offset="1" stop-color="#12100f" stop-opacity="0"/>
    </radialGradient>
    <pattern id="beads" width="96" height="96" patternUnits="userSpaceOnUse">
      <rect width="96" height="96" fill="none"/>
      <circle cx="16" cy="16" r="5" fill="#fffdf8" opacity=".54"/>
      <circle cx="48" cy="16" r="5" fill="#d99a22" opacity=".58"/>
      <circle cx="80" cy="16" r="5" fill="#b6161d" opacity=".58"/>
      <circle cx="16" cy="48" r="5" fill="#d99a22" opacity=".48"/>
      <circle cx="48" cy="48" r="5" fill="#fffdf8" opacity=".42"/>
      <circle cx="80" cy="48" r="5" fill="#e15b23" opacity=".48"/>
      <circle cx="16" cy="80" r="5" fill="#b6161d" opacity=".46"/>
      <circle cx="48" cy="80" r="5" fill="#e15b23" opacity=".44"/>
      <circle cx="80" cy="80" r="5" fill="#fffdf8" opacity=".42"/>
    </pattern>
  </defs>
  <rect width="1600" height="980" fill="url(#sky)"/>
  <rect width="1600" height="980" fill="url(#light)"/>
  <rect width="1600" height="980" fill="url(#beads)" opacity=".36"/>
  <g opacity=".7">
    <path d="M0 92h1600v26H0z" fill="#b6161d"/>
    <path d="M0 118h1600v10H0z" fill="#fffdf8"/>
    <path d="M0 128h1600v17H0z" fill="#d99a22"/>
    <path d="M0 832h1600v34H0z" fill="#12100f"/>
    <path d="M0 866h1600v20H0z" fill="#b6161d"/>
    <path d="M0 886h1600v13H0z" fill="#fffdf8"/>
  </g>
  <g transform="translate(940 238)" opacity=".88">
    <circle cx="220" cy="220" r="210" fill="none" stroke="#d99a22" stroke-width="18"/>
    <circle cx="220" cy="220" r="158" fill="none" stroke="#fffdf8" stroke-width="8" opacity=".7"/>
    <circle cx="220" cy="220" r="112" fill="none" stroke="#b6161d" stroke-width="18"/>
    <g fill="#fffdf8" opacity=".78">
      <circle cx="220" cy="10" r="9"/>
      <circle cx="430" cy="220" r="9"/>
      <circle cx="220" cy="430" r="9"/>
      <circle cx="10" cy="220" r="9"/>
    </g>
  </g>
  <g transform="translate(1050 330)" fill="#12100f" opacity=".74">
    <path d="M145 60c46 0 83 38 83 84s-37 83-83 83-84-37-84-83 38-84 84-84z"/>
    <path d="M116 226h60l43 258H73z"/>
    <path d="M74 266l-98 145-38-29 112-167z"/>
    <path d="M217 270l116 118-33 36-130-132z"/>
  </g>
  <g transform="translate(1115 390)" fill="none" stroke-linecap="round" opacity=".86">
    <path d="M0 42c54 26 107 26 160 0" stroke="#d99a22" stroke-width="13"/>
    <path d="M9 68c47 22 95 22 142 0" stroke="#fffdf8" stroke-width="7"/>
    <path d="M20 91c40 18 80 18 120 0" stroke="#b6161d" stroke-width="10"/>
  </g>
  <path d="M0 728c244-82 442-80 690 0s488 78 910-42v294H0z" fill="#12100f" opacity=".68"/>
</svg>
